<svg width="500" height="500" viewBox="0 0 500 500" fill="none" xmlns="http://www.w3.org/2000/svg">
<g clip-path="url(#clip0_409_34)">
<g filter="url(#filter0_d_409_34)">
<path fill-rule="evenodd" clip-rule="evenodd" d="M434.586 373.003C458.98 336.742 472 294.111 472 250.5H310.811C310.811 262.446 307.246 274.125 300.564 284.057C293.882 293.99 284.384 301.732 273.271 306.303C262.16 310.875 249.933 312.071 238.136 309.741C226.34 307.409 215.505 301.658 207 293.209C198.495 284.762 192.703 274 190.357 262.284C188.01 250.566 189.214 238.422 193.817 227.386C198.42 216.348 206.214 206.915 216.215 200.279C226.214 193.641 237.973 190.099 250 190.099V30C206.093 30 163.171 42.9321 126.664 67.1609C90.1558 91.3898 61.7015 125.827 44.8988 166.118C28.0962 206.41 23.6999 250.745 32.2658 293.518C40.8317 336.291 61.9752 375.579 93.0224 406.418C124.07 437.255 163.626 458.256 206.69 466.763C249.754 475.271 294.391 470.905 334.956 454.215C375.521 437.527 410.193 409.264 434.586 373.003ZM471.998 30H311.13V189.783H471.998V30Z" fill="url(#paint0_linear_409_34)"/>
</g>
</g>
<defs>
<filter id="filter0_d_409_34" x="18" y="20" width="484" height="481" filterUnits="userSpaceOnUse" color-interpolation-filters="sRGB">
<feFlood flood-opacity="0" result="BackgroundImageFix"/>
<feColorMatrix in="SourceAlpha" type="matrix" values="0 0 0 0 0 0 0 0 0 0 0 0 0 0 0 0 0 0 127 0" result="hardAlpha"/>
<feOffset dx="10" dy="10"/>
<feGaussianBlur stdDeviation="10"/>
<feComposite in2="hardAlpha" operator="out"/>
<feColorMatrix type="matrix" values="0 0 0 0 0 0 0 0 0 0 0 0 0 0 0 0 0 0 0.44 0"/>
<feBlend mode="normal" in2="BackgroundImageFix" result="effect1_dropShadow_409_34"/>
<feBlend mode="normal" in="SourceGraphic" in2="effect1_dropShadow_409_34" result="shape"/>
</filter>
<linearGradient id="paint0_linear_409_34" x1="394.3" y1="11.4036" x2="18.8239" y2="443.752" gradientUnits="userSpaceOnUse">
<stop stop-color="#FF827A"/>
<stop offset="1" stop-color="#FFA825"/>
</linearGradient>
<clipPath id="clip0_409_34">
<rect width="500" height="500" fill="white"/>
</clipPath>
</defs>
</svg>
