<svg width="74" height="74" viewBox="0 0 74 74" fill="none" xmlns="http://www.w3.org/2000/svg">
<path fill-rule="evenodd" clip-rule="evenodd" d="M22.7618 31.1478L37.0035 16.906L51.2575 31.16L59.5438 22.8736L37.0035 0.333374L14.4755 22.8614L22.7618 31.1478ZM0.333252 37.0026L8.61741 28.7184L16.9016 37.0026L8.61741 45.2868L0.333252 37.0026ZM37.0034 57.1051L22.7617 42.8633L14.4631 51.1375L14.4753 51.1497L37.0034 73.6777L59.5437 51.1375L51.2574 42.8511L37.0034 57.1051ZM57.0983 37.0084L65.3825 28.7243L73.6666 37.0084L65.3825 45.2926L57.0983 37.0084ZM37.0035 28.5972L45.4119 37.0056L37.0035 45.4261L28.5952 37.0178V36.9934L30.0718 35.5167L30.7918 34.8089L37.0035 28.5972Z" fill="white"/>
</svg>
