<?xml version="1.0" encoding="utf-8"?>
<svg version="1.1" id="layer" xmlns="http://www.w3.org/2000/svg" xmlns:xlink="http://www.w3.org/1999/xlink" x="0px" y="0px"
	 viewBox="0 250 180 120" style="enable-background:new 0 0 652 652;" xml:space="preserve">
<style type="text/css">
	.st0{fill:#ffffff;}
</style>
<path id="_x23_0da8ffff_1_" class="st0" d="M77,273.7c10.4-0.7,21,1.4,30.3,6.1c13.8,6.8,24.8,19,29.9,33.4
	c2.3,6.4,3.5,13.1,3.5,19.9v25.1c0,1,0,2.1-0.2,3.1c-0.6,2.5-2.4,4.8-4.8,5.9c-1.7,0.8-3.6,0.9-5.3,0.6c-3.8-0.7-6.8-4.3-6.8-8.2
	c0-7.8,0-15.6,0-23.4c0.1-2.2,0.1-4.6-1.1-6.5c-1.9-3.6-6.7-5.3-10.4-3.8c-3.2,1.1-5.5,4.4-5.6,7.8c0,7.9,0,15.8,0,23.7
	c0,1.5,0.1,3-0.4,4.4c-0.8,2.8-3.1,5-5.9,5.8c-3.7,1-7.9-0.6-9.7-4c-1.3-2-1.2-4.5-1.1-6.8c0-7.9,0-15.7,0-23.6
	c-0.1-4-3.4-7.6-7.3-8.1c-2.6-0.4-5.3,0.5-7.2,2.3c-1.7,1.6-2.6,3.9-2.6,6.2v22.9c0,1.9,0.2,3.9-0.5,5.7c-1.1,3.3-4.4,5.7-7.9,5.6
	c-3.6,0.2-7.1-2.3-8.2-5.6c-0.6-1.7-0.5-3.4-0.5-5.2c0-7.9,0-15.8,0-23.7c0-3.9-3.1-7.5-6.9-8.2c-3.5-0.7-7.3,1-9.1,4.2
	c-0.7,1.3-1.1,2.8-1.1,4.3v25.7c0,2.5-1.1,5-3,6.6c-2.9,2.5-7.6,2.7-10.6,0.4c-2.2-1.5-3.5-4.1-3.5-6.8v-26c0-9.8,2.5-19.6,7.2-28.3
	c3.8-7.1,9.1-13.4,15.4-18.4C52.9,279,64.8,274.4,77,273.7L77,273.7z"/>
</svg>