<svg width="14" height="16" viewBox="0 0 14 16" fill="none" xmlns="http://www.w3.org/2000/svg">
<path fill-rule="evenodd" clip-rule="evenodd" d="M4.42577 7.99206L8.96704 12.4843L11.8336 9.64931C12.3463 9.19315 13.1303 9.21298 13.618 9.6954C14.1056 10.1778 14.1266 10.9537 13.6646 11.4606L9.88229 15.2027C9.63665 15.4403 9.30824 15.5732 8.96646 15.5732C8.62467 15.5732 8.29627 15.4403 8.05062 15.2027L2.59351 9.80332V13.0122C2.59351 13.7204 2.01251 14.295 1.29676 14.295C0.580419 14.295 0 13.7204 0 13.0122V2.96778C0 2.25962 0.580419 1.68561 1.29676 1.68561C2.01251 1.68561 2.59351 2.25962 2.59351 2.96778V6.17672L8.05004 0.779109C8.29544 0.541228 8.6238 0.408203 8.96558 0.408203C9.30736 0.408203 9.63572 0.541228 9.88113 0.779109L13.667 4.52063C14.1284 5.02754 14.108 5.8028 13.6203 6.28522C13.1326 6.76764 12.3486 6.78805 11.8359 6.3313L8.96937 3.49629L4.42577 7.99206ZM8.96937 6.70814C8.44437 6.70814 7.9707 7.0208 7.76945 7.50031C7.5682 7.98039 7.67962 8.53223 8.05062 8.89973C8.42162 9.26723 8.97987 9.3769 9.46521 9.17856C9.70149 9.08268 9.90388 8.91865 10.0466 8.70735C10.1894 8.49605 10.266 8.24705 10.2667 7.99206C10.2667 7.65197 10.1302 7.3253 9.88696 7.08439C9.64371 6.84347 9.31354 6.70813 8.96937 6.70755V6.70814Z" fill="white"/>
</svg>
