<svg width="197" height="197" viewBox="0 0 197 197" fill="none" xmlns="http://www.w3.org/2000/svg">
<path d="M127.016 65.908H70.5155C68.1153 65.908 66.169 67.8534 66.169 70.2536V126.755C66.169 129.155 68.1153 131.102 70.5155 131.102H127.016C129.416 131.102 131.363 129.155 131.363 126.755V70.2536C131.363 67.8534 129.416 65.908 127.016 65.908Z" fill="white"/>
<path d="M61.7963 0.712646H5.29577C2.89549 0.712646 0.949219 2.65802 0.949219 5.05918V61.5597C0.949219 63.96 2.89549 65.9062 5.29577 65.9062H61.7963C64.1975 65.9062 66.1428 63.96 66.1428 61.5597V5.05918C66.1428 2.65802 64.1975 0.712646 61.7963 0.712646Z" fill="white"/>
<path d="M192.184 0.712646H135.682C133.282 0.712646 131.336 2.65802 131.336 5.05918V61.5597C131.336 63.96 133.282 65.9062 135.682 65.9062H192.184C194.584 65.9062 196.529 63.96 196.529 61.5597V5.05918C196.529 2.65802 194.584 0.712646 192.184 0.712646Z" fill="white"/>
<path d="M61.7963 131.098H5.29577C2.89549 131.098 0.949219 133.043 0.949219 135.444V191.945C0.949219 194.345 2.89549 196.292 5.29577 196.292H61.7963C64.1975 196.292 66.1428 194.345 66.1428 191.945V135.444C66.1428 133.043 64.1975 131.098 61.7963 131.098Z" fill="white"/>
<path d="M192.184 131.098H135.682C133.282 131.098 131.336 133.043 131.336 135.444V191.945C131.336 194.345 133.282 196.292 135.682 196.292H192.184C194.584 196.292 196.529 194.345 196.529 191.945V135.444C196.529 133.043 194.584 131.098 192.184 131.098Z" fill="white"/>
</svg>
