<svg xmlns="http://www.w3.org/2000/svg" width="115" height="86" fill="none"><mask id="a" width="115" height="86" x="0" y="0" maskUnits="userSpaceOnUse" style="mask-type:luminance"><path fill="#fff" d="M0 10.5C0 4.977 4.477.5 10 .5h95c5.523 0 10 4.477 10 10v65c0 5.523-4.477 10-10 10H10c-5.523 0-10-4.477-10-10v-65Z"/></mask><g mask="url(#a)"><path fill="url(#b)" d="M0 10.5C0 4.977 4.477.5 10 .5h95c5.523 0 10 4.477 10 10v65c0 5.523-4.477 10-10 10H10c-5.523 0-10-4.477-10-10v-65Z"/><g filter="url(#c)"><path fill="#F9F9F9" d="M8 16.5a8 8 0 0 1 8-8h99v77H8v-69Z"/><mask id="d" width="107" height="78" x="8" y="8" maskUnits="userSpaceOnUse" style="mask-type:luminance"><path fill="#fff" d="M8 16.5a8 8 0 0 1 8-8h99v77H8v-69Z"/></mask><g mask="url(#d)"><path fill="#fff" d="M6 16.5c0-5.523 4.477-10 10-10h99v4H16a6 6 0 0 0-6 6H6Zm0 69v-69c0-5.523 4.477-10 10-10v4a6 6 0 0 0-6 6v69H6Z"/></g></g><mask id="e" width="107" height="78" x="8" y="8" maskUnits="userSpaceOnUse" style="mask-type:luminance"><path fill="#fff" d="M8 16.5a8 8 0 0 1 8-8h99v77H8v-69Z"/></mask><g mask="url(#e)"><path fill="#CECECE" d="M7 16.5a9 9 0 0 1 9-9h99v2H16a7 7 0 0 0-7 7H7Zm0 69v-69a9 9 0 0 1 9-9v2a7 7 0 0 0-7 7v69H7Z"/></g><path fill="url(#f)" d="M42.394 27.093c0-5.85 4.742-10.593 10.593-10.593H147v95.338H42.394V27.093Z"/><mask id="g" width="105" height="96" x="42" y="16" maskUnits="userSpaceOnUse" style="mask-type:luminance"><path fill="#fff" d="M42.394 27.093c0-5.85 4.742-10.593 10.593-10.593H147v95.338H42.394V27.093Z"/></mask><g mask="url(#g)"><path fill="#F1F1F1" d="M41.07 27.093c0-6.582 5.335-11.917 11.917-11.917H147v2.648H52.987a9.269 9.269 0 0 0-9.27 9.27H41.07Zm0 84.745V27.093c0-6.582 5.335-11.917 11.917-11.917v2.648a9.269 9.269 0 0 0-9.27 9.27v84.744H41.07Z"/></g><g filter="url(#h)"><path fill="#000" fill-opacity=".447" d="M29.477 18.5h-6.954A3.523 3.523 0 0 0 19 22.023v7.046a3.523 3.523 0 0 0 3.523 3.522h6.954A3.523 3.523 0 0 0 33 29.068v-7.045a3.523 3.523 0 0 0-3.523-3.523Z"/></g><g filter="url(#i)"><path fill="#000" fill-opacity=".447" d="M29.477 40.59h-6.954A3.523 3.523 0 0 0 19 44.113v7.045a3.523 3.523 0 0 0 3.523 3.523h6.954A3.523 3.523 0 0 0 33 51.158v-7.045a3.523 3.523 0 0 0-3.523-3.523Z"/></g><g filter="url(#j)"><path fill="#000" fill-opacity=".447" d="M29.477 62.684h-6.954A3.523 3.523 0 0 0 19 66.206v7.046a3.523 3.523 0 0 0 3.523 3.523h6.954A3.523 3.523 0 0 0 33 73.252v-7.046a3.523 3.523 0 0 0-3.523-3.522Z"/></g><path fill="#CECECE" d="M78.09 27.094H55.76a2.648 2.648 0 0 0-2.649 2.648v2.648a2.648 2.648 0 0 0 2.649 2.649h22.33a2.648 2.648 0 0 0 2.648-2.649v-2.648a2.648 2.648 0 0 0-2.648-2.648ZM57.716 52.5a4.604 4.604 0 0 0-4.605 4.604v.06a4.604 4.604 0 1 0 9.209 0v-.06a4.604 4.604 0 0 0-4.604-4.604Z"/><path fill="#E0E0E0" d="M82.692 53.824H70.894a3.31 3.31 0 0 0 0 6.62h11.797a3.31 3.31 0 0 0 0-6.62ZM119.526 53.824H91.942a3.31 3.31 0 0 0 0 6.62h27.584a3.31 3.31 0 0 0 0-6.62ZM95.372 40.5H55.648A2.648 2.648 0 0 0 53 43.148v2.649a2.648 2.648 0 0 0 2.648 2.648h39.724a2.648 2.648 0 0 0 2.649-2.648v-2.649a2.648 2.648 0 0 0-2.649-2.648Z"/><path fill="#CECECE" d="M119.559 40.5h-15.89a2.648 2.648 0 0 0-2.648 2.648v2.649a2.648 2.648 0 0 0 2.648 2.648h15.89a2.648 2.648 0 0 0 2.648-2.648v-2.649a2.648 2.648 0 0 0-2.648-2.648Z"/></g><path stroke="#000" stroke-opacity=".055" d="M10 1h95a9.5 9.5 0 0 1 9.5 9.5v65A9.5 9.5 0 0 1 105 85H10a9.5 9.5 0 0 1-9.5-9.5v-65A9.5 9.5 0 0 1 10 1Z"/><defs><filter id="c" width="119" height="89" x="2" y="2.5" color-interpolation-filters="sRGB" filterUnits="userSpaceOnUse"><feFlood flood-opacity="0" result="BackgroundImageFix"/><feColorMatrix in="SourceAlpha" result="hardAlpha" values="0 0 0 0 0 0 0 0 0 0 0 0 0 0 0 0 0 0 127 0"/><feOffset/><feGaussianBlur stdDeviation="3"/><feComposite in2="hardAlpha" operator="out"/><feColorMatrix values="0 0 0 0 0 0 0 0 0 0 0 0 0 0 0 0 0 0 0.03 0"/><feBlend in2="BackgroundImageFix" result="effect1_dropShadow_0_4"/><feBlend in="SourceGraphic" in2="effect1_dropShadow_0_4" result="shape"/></filter><filter id="h" width="28.091" height="28.183" x="11.954" y="11.454" color-interpolation-filters="sRGB" filterUnits="userSpaceOnUse"><feFlood flood-opacity="0" result="BackgroundImageFix"/><feColorMatrix in="SourceAlpha" result="hardAlpha" values="0 0 0 0 0 0 0 0 0 0 0 0 0 0 0 0 0 0 127 0"/><feOffset/><feGaussianBlur stdDeviation="3.523"/><feComposite in2="hardAlpha" operator="out"/><feColorMatrix values="0 0 0 0 0 0 0 0 0 0 0 0 0 0 0 0 0 0 0.03 0"/><feBlend in2="BackgroundImageFix" result="effect1_dropShadow_0_4"/><feBlend in="SourceGraphic" in2="effect1_dropShadow_0_4" result="shape"/></filter><filter id="i" width="28.091" height="28.183" x="11.954" y="33.544" color-interpolation-filters="sRGB" filterUnits="userSpaceOnUse"><feFlood flood-opacity="0" result="BackgroundImageFix"/><feColorMatrix in="SourceAlpha" result="hardAlpha" values="0 0 0 0 0 0 0 0 0 0 0 0 0 0 0 0 0 0 127 0"/><feOffset/><feGaussianBlur stdDeviation="3.523"/><feComposite in2="hardAlpha" operator="out"/><feColorMatrix values="0 0 0 0 0 0 0 0 0 0 0 0 0 0 0 0 0 0 0.03 0"/><feBlend in2="BackgroundImageFix" result="effect1_dropShadow_0_4"/><feBlend in="SourceGraphic" in2="effect1_dropShadow_0_4" result="shape"/></filter><filter id="j" width="28.091" height="28.183" x="11.954" y="55.638" color-interpolation-filters="sRGB" filterUnits="userSpaceOnUse"><feFlood flood-opacity="0" result="BackgroundImageFix"/><feColorMatrix in="SourceAlpha" result="hardAlpha" values="0 0 0 0 0 0 0 0 0 0 0 0 0 0 0 0 0 0 127 0"/><feOffset/><feGaussianBlur stdDeviation="3.523"/><feComposite in2="hardAlpha" operator="out"/><feColorMatrix values="0 0 0 0 0 0 0 0 0 0 0 0 0 0 0 0 0 0 0.03 0"/><feBlend in2="BackgroundImageFix" result="effect1_dropShadow_0_4"/><feBlend in="SourceGraphic" in2="effect1_dropShadow_0_4" result="shape"/></filter><radialGradient id="b" cx="0" cy="0" r="1" gradientTransform="rotate(57.273 .98 2.883) scale(101.039 222.764)" gradientUnits="userSpaceOnUse"><stop stop-color="#E8E8E8"/><stop offset="1" stop-color="#CECECE"/></radialGradient><linearGradient id="f" x1="46.13" x2="155.229" y1="23.948" y2="90.174" gradientUnits="userSpaceOnUse"><stop stop-color="#fff"/><stop offset="1" stop-color="#F9F9F9"/></linearGradient></defs></svg>