<svg xmlns="http://www.w3.org/2000/svg" width="115" height="85" fill="none"><g clip-path="url(#a)"><path fill="url(#b)" d="M0 10C0 4.477 4.477 0 10 0h95c5.523 0 10 4.477 10 10v65c0 5.523-4.477 10-10 10H10C4.477 85 0 80.523 0 75V10Z"/><g filter="url(#c)"><mask id="d" fill="#fff"><path d="M8 16a8 8 0 0 1 8-8h99v77H8V16Z"/></mask><path fill="#202020" d="M8 16a8 8 0 0 1 8-8h99v77H8V16Z"/><path fill="#1D1D1D" d="M6 16c0-5.523 4.477-10 10-10h99v4H16a6 6 0 0 0-6 6H6Zm109 69H8h107ZM6 85V16c0-5.523 4.477-10 10-10v4a6 6 0 0 0-6 6v69H6ZM115 8v77V8Z" mask="url(#d)"/></g><mask id="e" fill="#fff"><path d="M8 16a8 8 0 0 1 8-8h99v77H8V16Z"/></mask><path fill="#484848" d="M7 16a9 9 0 0 1 9-9h99v2H16a7 7 0 0 0-7 7H7Zm108 69H8h107ZM7 85V16a9 9 0 0 1 9-9v2a7 7 0 0 0-7 7v69H7ZM115 8v77V8Z" mask="url(#e)"/><mask id="g" fill="#fff"><path d="M42.394 26.593c0-5.85 4.742-10.593 10.593-10.593H147v95.338H42.394V26.593Z"/></mask><path fill="url(#f)" d="M42.394 26.593c0-5.85 4.742-10.593 10.593-10.593H147v95.338H42.394V26.593Z"/><path fill="#282828" d="M41.07 26.593c0-6.582 5.335-11.917 11.917-11.917H147v2.648H52.987a9.269 9.269 0 0 0-9.27 9.27H41.07ZM147 111.338H42.394 147Zm-105.93 0V26.593c0-6.582 5.335-11.917 11.917-11.917v2.648a9.269 9.269 0 0 0-9.27 9.27v84.744H41.07ZM147 16v95.338V16Z" mask="url(#g)"/><g filter="url(#h)"><rect width="14" height="14.091" x="19" y="18" fill="#fff" fill-opacity=".392" rx="3.523" shape-rendering="crispEdges"/></g><g filter="url(#i)"><rect width="14" height="14.091" x="19" y="40.091" fill="#fff" fill-opacity=".392" rx="3.523" shape-rendering="crispEdges"/></g><g filter="url(#j)"><rect width="14" height="14.091" x="19" y="62.183" fill="#fff" fill-opacity=".392" rx="3.523" shape-rendering="crispEdges"/></g><rect width="27.627" height="7.945" x="53.111" y="26.594" fill="#484848" rx="2.648"/><rect width="9.209" height="9.269" x="53.111" y="52" fill="#484848" rx="4.604"/><rect width="18.418" height="6.621" x="67.584" y="53.324" fill="#313131" rx="3.31"/><rect width="34.204" height="6.621" x="88.632" y="53.324" fill="#313131" rx="3.31"/><rect width="45.021" height="7.945" x="53" y="40" fill="#313131" rx="2.648"/><rect width="21.186" height="7.945" x="101.021" y="40" fill="#484848" rx="2.648"/></g><path stroke="#000" stroke-opacity=".055" d="M10 .5h95a9.5 9.5 0 0 1 9.5 9.5v65a9.5 9.5 0 0 1-9.5 9.5H10A9.5 9.5 0 0 1 .5 75V10A9.5 9.5 0 0 1 10 .5Z"/><defs><filter id="c" width="119" height="89" x="2" y="2" color-interpolation-filters="sRGB" filterUnits="userSpaceOnUse"><feFlood flood-opacity="0" result="BackgroundImageFix"/><feColorMatrix in="SourceAlpha" result="hardAlpha" values="0 0 0 0 0 0 0 0 0 0 0 0 0 0 0 0 0 0 127 0"/><feOffset/><feGaussianBlur stdDeviation="3"/><feComposite in2="hardAlpha" operator="out"/><feColorMatrix values="0 0 0 0 0 0 0 0 0 0 0 0 0 0 0 0 0 0 0.03 0"/><feBlend in2="BackgroundImageFix" result="effect1_dropShadow_1_24"/><feBlend in="SourceGraphic" in2="effect1_dropShadow_1_24" result="shape"/></filter><filter id="h" width="28.091" height="28.183" x="11.954" y="10.954" color-interpolation-filters="sRGB" filterUnits="userSpaceOnUse"><feFlood flood-opacity="0" result="BackgroundImageFix"/><feColorMatrix in="SourceAlpha" result="hardAlpha" values="0 0 0 0 0 0 0 0 0 0 0 0 0 0 0 0 0 0 127 0"/><feOffset/><feGaussianBlur stdDeviation="3.523"/><feComposite in2="hardAlpha" operator="out"/><feColorMatrix values="0 0 0 0 0 0 0 0 0 0 0 0 0 0 0 0 0 0 0.03 0"/><feBlend in2="BackgroundImageFix" result="effect1_dropShadow_1_24"/><feBlend in="SourceGraphic" in2="effect1_dropShadow_1_24" result="shape"/></filter><filter id="i" width="28.091" height="28.183" x="11.954" y="33.046" color-interpolation-filters="sRGB" filterUnits="userSpaceOnUse"><feFlood flood-opacity="0" result="BackgroundImageFix"/><feColorMatrix in="SourceAlpha" result="hardAlpha" values="0 0 0 0 0 0 0 0 0 0 0 0 0 0 0 0 0 0 127 0"/><feOffset/><feGaussianBlur stdDeviation="3.523"/><feComposite in2="hardAlpha" operator="out"/><feColorMatrix values="0 0 0 0 0 0 0 0 0 0 0 0 0 0 0 0 0 0 0.03 0"/><feBlend in2="BackgroundImageFix" result="effect1_dropShadow_1_24"/><feBlend in="SourceGraphic" in2="effect1_dropShadow_1_24" result="shape"/></filter><filter id="j" width="28.091" height="28.183" x="11.954" y="55.137" color-interpolation-filters="sRGB" filterUnits="userSpaceOnUse"><feFlood flood-opacity="0" result="BackgroundImageFix"/><feColorMatrix in="SourceAlpha" result="hardAlpha" values="0 0 0 0 0 0 0 0 0 0 0 0 0 0 0 0 0 0 127 0"/><feOffset/><feGaussianBlur stdDeviation="3.523"/><feComposite in2="hardAlpha" operator="out"/><feColorMatrix values="0 0 0 0 0 0 0 0 0 0 0 0 0 0 0 0 0 0 0.03 0"/><feBlend in2="BackgroundImageFix" result="effect1_dropShadow_1_24"/><feBlend in="SourceGraphic" in2="effect1_dropShadow_1_24" result="shape"/></filter><radialGradient id="b" cx="0" cy="0" r="1" gradientTransform="matrix(54.6254 84.99968 -187.40158 120.43442 2.875 0)" gradientUnits="userSpaceOnUse"><stop stop-color="#2A2A2A"/><stop offset="1" stop-color="#484848"/></radialGradient><linearGradient id="f" x1="46.13" x2="155.229" y1="23.448" y2="89.674" gradientUnits="userSpaceOnUse"><stop stop-color="#181818"/><stop offset="1" stop-color="#282828"/></linearGradient><clipPath id="a"><path fill="#fff" d="M0 10C0 4.477 4.477 0 10 0h95c5.523 0 10 4.477 10 10v65c0 5.523-4.477 10-10 10H10C4.477 85 0 80.523 0 75V10Z"/></clipPath></defs></svg>