<svg xmlns="http://www.w3.org/2000/svg" width="116" height="85" fill="none"><g clip-path="url(#a)"><path fill="url(#b)" d="M.334 10c0-5.523 4.477-10 10-10h95c5.523 0 10 4.477 10 10v65c0 5.523-4.477 10-10 10h-95c-5.523 0-10-4.477-10-10V10Z"/><g filter="url(#c)"><mask id="d" fill="#fff"><path d="M8.334 16a8 8 0 0 1 8-8h99v77h-107V16Z"/></mask><path fill="#202020" d="M8.334 16a8 8 0 0 1 8-8h99v77h-107V16Z"/><path fill="#1D1D1D" d="M6.334 16c0-5.523 4.477-10 10-10h99v4h-99a6 6 0 0 0-6 6h-4Zm109 69h-107 107Zm-109 0V16c0-5.523 4.477-10 10-10v4a6 6 0 0 0-6 6v69h-4Zm109-77v77V8Z" mask="url(#d)"/></g><mask id="e" fill="#fff"><path d="M8.334 16a8 8 0 0 1 8-8h99v77h-107V16Z"/></mask><path fill="#484848" d="M7.334 16a9 9 0 0 1 9-9h99v2h-99a7 7 0 0 0-7 7h-2Zm108 69h-107 107Zm-108 0V16a9 9 0 0 1 9-9v2a7 7 0 0 0-7 7v69h-2Zm108-77v77V8Z" mask="url(#e)"/><mask id="g" fill="#fff"><path d="M42.727 26.593C42.727 20.743 47.47 16 53.322 16h94.013v95.338H42.727V26.593Z"/></mask><path fill="url(#f)" d="M42.727 26.593C42.727 20.743 47.47 16 53.322 16h94.013v95.338H42.727V26.593Z"/><path fill="#282828" d="M41.403 26.593c0-6.582 5.336-11.917 11.918-11.917h94.013v2.648H53.321a9.269 9.269 0 0 0-9.27 9.27h-2.648Zm105.931 84.745H42.727h104.607Zm-105.93 0V26.593c0-6.582 5.335-11.917 11.917-11.917v2.648a9.269 9.269 0 0 0-9.27 9.27v84.744h-2.648ZM147.333 16v95.338V16Z" mask="url(#g)"/><g filter="url(#h)"><rect width="14" height="14.091" x="19.334" y="18" fill="#fff" fill-opacity=".392" rx="3.523" shape-rendering="crispEdges"/></g><rect width="14" height="4" x="19.334" y="34.091" fill="#6E6E6E" rx="1"/><g filter="url(#i)"><rect width="14" height="14.091" x="19.334" y="46.091" fill="#fff" fill-opacity=".392" rx="3.523" shape-rendering="crispEdges"/></g><rect width="14" height="4" x="19.334" y="62.183" fill="#6E6E6E" rx="1"/><g filter="url(#j)"><rect width="14" height="14.091" x="19.334" y="74.183" fill="#fff" fill-opacity=".392" rx="3.523" shape-rendering="crispEdges"/></g><rect width="27.627" height="7.945" x="53.445" y="26.594" fill="#484848" rx="2.648"/><rect width="9.209" height="9.269" x="53.445" y="52" fill="#484848" rx="4.604"/><rect width="18.418" height="6.621" x="67.918" y="53.324" fill="#313131" rx="3.31"/><rect width="34.204" height="6.621" x="88.966" y="53.324" fill="#313131" rx="3.31"/><rect width="45.021" height="7.945" x="53.334" y="40" fill="#313131" rx="2.648"/><rect width="21.186" height="7.945" x="101.355" y="40" fill="#484848" rx="2.648"/></g><path stroke="#000" stroke-opacity=".055" d="M10.334.5h95a9.5 9.5 0 0 1 9.5 9.5v65a9.5 9.5 0 0 1-9.5 9.5h-95a9.5 9.5 0 0 1-9.5-9.5V10a9.5 9.5 0 0 1 9.5-9.5Z"/><defs><filter id="c" width="119" height="89" x="2.334" y="2" color-interpolation-filters="sRGB" filterUnits="userSpaceOnUse"><feFlood flood-opacity="0" result="BackgroundImageFix"/><feColorMatrix in="SourceAlpha" result="hardAlpha" values="0 0 0 0 0 0 0 0 0 0 0 0 0 0 0 0 0 0 127 0"/><feOffset/><feGaussianBlur stdDeviation="3"/><feComposite in2="hardAlpha" operator="out"/><feColorMatrix values="0 0 0 0 0 0 0 0 0 0 0 0 0 0 0 0 0 0 0.03 0"/><feBlend in2="BackgroundImageFix" result="effect1_dropShadow_1_25"/><feBlend in="SourceGraphic" in2="effect1_dropShadow_1_25" result="shape"/></filter><filter id="h" width="28.091" height="28.183" x="12.288" y="10.954" color-interpolation-filters="sRGB" filterUnits="userSpaceOnUse"><feFlood flood-opacity="0" result="BackgroundImageFix"/><feColorMatrix in="SourceAlpha" result="hardAlpha" values="0 0 0 0 0 0 0 0 0 0 0 0 0 0 0 0 0 0 127 0"/><feOffset/><feGaussianBlur stdDeviation="3.523"/><feComposite in2="hardAlpha" operator="out"/><feColorMatrix values="0 0 0 0 0 0 0 0 0 0 0 0 0 0 0 0 0 0 0.03 0"/><feBlend in2="BackgroundImageFix" result="effect1_dropShadow_1_25"/><feBlend in="SourceGraphic" in2="effect1_dropShadow_1_25" result="shape"/></filter><filter id="i" width="28.091" height="28.183" x="12.288" y="39.046" color-interpolation-filters="sRGB" filterUnits="userSpaceOnUse"><feFlood flood-opacity="0" result="BackgroundImageFix"/><feColorMatrix in="SourceAlpha" result="hardAlpha" values="0 0 0 0 0 0 0 0 0 0 0 0 0 0 0 0 0 0 127 0"/><feOffset/><feGaussianBlur stdDeviation="3.523"/><feComposite in2="hardAlpha" operator="out"/><feColorMatrix values="0 0 0 0 0 0 0 0 0 0 0 0 0 0 0 0 0 0 0.03 0"/><feBlend in2="BackgroundImageFix" result="effect1_dropShadow_1_25"/><feBlend in="SourceGraphic" in2="effect1_dropShadow_1_25" result="shape"/></filter><filter id="j" width="28.091" height="28.183" x="12.288" y="67.137" color-interpolation-filters="sRGB" filterUnits="userSpaceOnUse"><feFlood flood-opacity="0" result="BackgroundImageFix"/><feColorMatrix in="SourceAlpha" result="hardAlpha" values="0 0 0 0 0 0 0 0 0 0 0 0 0 0 0 0 0 0 127 0"/><feOffset/><feGaussianBlur stdDeviation="3.523"/><feComposite in2="hardAlpha" operator="out"/><feColorMatrix values="0 0 0 0 0 0 0 0 0 0 0 0 0 0 0 0 0 0 0.03 0"/><feBlend in2="BackgroundImageFix" result="effect1_dropShadow_1_25"/><feBlend in="SourceGraphic" in2="effect1_dropShadow_1_25" result="shape"/></filter><radialGradient id="b" cx="0" cy="0" r="1" gradientTransform="rotate(57.273 1.604 2.938) scale(101.039 222.764)" gradientUnits="userSpaceOnUse"><stop stop-color="#2A2A2A"/><stop offset="1" stop-color="#484848"/></radialGradient><linearGradient id="f" x1="46.464" x2="155.563" y1="23.448" y2="89.674" gradientUnits="userSpaceOnUse"><stop stop-color="#181818"/><stop offset="1" stop-color="#282828"/></linearGradient><clipPath id="a"><path fill="#fff" d="M.334 10c0-5.523 4.477-10 10-10h95c5.523 0 10 4.477 10 10v65c0 5.523-4.477 10-10 10h-95c-5.523 0-10-4.477-10-10V10Z"/></clipPath></defs></svg>