<svg xmlns="http://www.w3.org/2000/svg" width="116" height="86" fill="none"><g clip-path="url(#a)"><path fill="url(#b)" d="M.334 10.5c0-5.523 4.477-10 10-10h95c5.523 0 10 4.477 10 10v65c0 5.523-4.477 10-10 10h-95c-5.523 0-10-4.477-10-10v-65Z"/><g filter="url(#c)"><mask id="d" fill="#fff"><path d="M8.334 16.5a8 8 0 0 1 8-8h99v77h-107v-69Z"/></mask><path fill="#F9F9F9" d="M8.334 16.5a8 8 0 0 1 8-8h99v77h-107v-69Z"/><path fill="#fff" d="M6.334 16.5c0-5.523 4.477-10 10-10h99v4h-99a6 6 0 0 0-6 6h-4Zm109 69h-107 107Zm-109 0v-69c0-5.523 4.477-10 10-10v4a6 6 0 0 0-6 6v69h-4Zm109-77v77-77Z" mask="url(#d)"/></g><mask id="e" fill="#fff"><path d="M8.334 16.5a8 8 0 0 1 8-8h99v77h-107v-69Z"/></mask><path fill="#CECECE" d="M7.334 16.5a9 9 0 0 1 9-9h99v2h-99a7 7 0 0 0-7 7h-2Zm108 69h-107 107Zm-108 0v-69a9 9 0 0 1 9-9v2a7 7 0 0 0-7 7v69h-2Zm108-77v77-77Z" mask="url(#e)"/><mask id="g" fill="#fff"><path d="M42.727 27.093c0-5.85 4.743-10.593 10.594-10.593h94.013v95.338H42.727V27.093Z"/></mask><path fill="url(#f)" d="M42.727 27.093c0-5.85 4.743-10.593 10.594-10.593h94.013v95.338H42.727V27.093Z"/><path fill="#F1F1F1" d="M41.403 27.093c0-6.582 5.336-11.917 11.918-11.917h94.013v2.648H53.321a9.269 9.269 0 0 0-9.27 9.27h-2.648Zm105.931 84.745H42.727h104.607Zm-105.93 0V27.093c0-6.582 5.335-11.917 11.917-11.917v2.648a9.269 9.269 0 0 0-9.27 9.27v84.744h-2.648ZM147.333 16.5v95.338V16.5Z" mask="url(#g)"/><g filter="url(#h)"><rect width="14" height="14.091" x="19.334" y="18.5" fill="#000" fill-opacity=".447" rx="3.523" shape-rendering="crispEdges"/></g><rect width="14" height="4" x="19.334" y="34.591" fill="#8D8D8D" rx="1"/><g filter="url(#i)"><rect width="14" height="14.091" x="19.334" y="46.591" fill="#000" fill-opacity=".447" rx="3.523" shape-rendering="crispEdges"/></g><rect width="14" height="4" x="19.334" y="62.683" fill="#8D8D8D" rx="1"/><g filter="url(#j)"><rect width="14" height="14.091" x="19.334" y="74.683" fill="#000" fill-opacity=".447" rx="3.523" shape-rendering="crispEdges"/></g><rect width="27.627" height="7.945" x="53.445" y="27.094" fill="#CECECE" rx="2.648"/><rect width="9.209" height="9.269" x="53.445" y="52.5" fill="#CECECE" rx="4.604"/><rect width="18.418" height="6.621" x="67.918" y="53.824" fill="#E0E0E0" rx="3.31"/><rect width="34.204" height="6.621" x="88.966" y="53.824" fill="#E0E0E0" rx="3.31"/><rect width="45.021" height="7.945" x="53.334" y="40.5" fill="#E0E0E0" rx="2.648"/><rect width="21.186" height="7.945" x="101.355" y="40.5" fill="#CECECE" rx="2.648"/></g><path stroke="#000" stroke-opacity=".055" d="M10.334 1h95a9.5 9.5 0 0 1 9.5 9.5v65a9.5 9.5 0 0 1-9.5 9.5h-95a9.5 9.5 0 0 1-9.5-9.5v-65a9.5 9.5 0 0 1 9.5-9.5Z"/><defs><filter id="c" width="119" height="89" x="2.334" y="2.5" color-interpolation-filters="sRGB" filterUnits="userSpaceOnUse"><feFlood flood-opacity="0" result="BackgroundImageFix"/><feColorMatrix in="SourceAlpha" result="hardAlpha" values="0 0 0 0 0 0 0 0 0 0 0 0 0 0 0 0 0 0 127 0"/><feOffset/><feGaussianBlur stdDeviation="3"/><feComposite in2="hardAlpha" operator="out"/><feColorMatrix values="0 0 0 0 0 0 0 0 0 0 0 0 0 0 0 0 0 0 0.03 0"/><feBlend in2="BackgroundImageFix" result="effect1_dropShadow_1_25"/><feBlend in="SourceGraphic" in2="effect1_dropShadow_1_25" result="shape"/></filter><filter id="h" width="28.091" height="28.183" x="12.288" y="11.454" color-interpolation-filters="sRGB" filterUnits="userSpaceOnUse"><feFlood flood-opacity="0" result="BackgroundImageFix"/><feColorMatrix in="SourceAlpha" result="hardAlpha" values="0 0 0 0 0 0 0 0 0 0 0 0 0 0 0 0 0 0 127 0"/><feOffset/><feGaussianBlur stdDeviation="3.523"/><feComposite in2="hardAlpha" operator="out"/><feColorMatrix values="0 0 0 0 0 0 0 0 0 0 0 0 0 0 0 0 0 0 0.03 0"/><feBlend in2="BackgroundImageFix" result="effect1_dropShadow_1_25"/><feBlend in="SourceGraphic" in2="effect1_dropShadow_1_25" result="shape"/></filter><filter id="i" width="28.091" height="28.183" x="12.288" y="39.546" color-interpolation-filters="sRGB" filterUnits="userSpaceOnUse"><feFlood flood-opacity="0" result="BackgroundImageFix"/><feColorMatrix in="SourceAlpha" result="hardAlpha" values="0 0 0 0 0 0 0 0 0 0 0 0 0 0 0 0 0 0 127 0"/><feOffset/><feGaussianBlur stdDeviation="3.523"/><feComposite in2="hardAlpha" operator="out"/><feColorMatrix values="0 0 0 0 0 0 0 0 0 0 0 0 0 0 0 0 0 0 0.03 0"/><feBlend in2="BackgroundImageFix" result="effect1_dropShadow_1_25"/><feBlend in="SourceGraphic" in2="effect1_dropShadow_1_25" result="shape"/></filter><filter id="j" width="28.091" height="28.183" x="12.288" y="67.637" color-interpolation-filters="sRGB" filterUnits="userSpaceOnUse"><feFlood flood-opacity="0" result="BackgroundImageFix"/><feColorMatrix in="SourceAlpha" result="hardAlpha" values="0 0 0 0 0 0 0 0 0 0 0 0 0 0 0 0 0 0 127 0"/><feOffset/><feGaussianBlur stdDeviation="3.523"/><feComposite in2="hardAlpha" operator="out"/><feColorMatrix values="0 0 0 0 0 0 0 0 0 0 0 0 0 0 0 0 0 0 0.03 0"/><feBlend in2="BackgroundImageFix" result="effect1_dropShadow_1_25"/><feBlend in="SourceGraphic" in2="effect1_dropShadow_1_25" result="shape"/></filter><radialGradient id="b" cx="0" cy="0" r="1" gradientTransform="rotate(57.273 1.147 3.188) scale(101.039 222.764)" gradientUnits="userSpaceOnUse"><stop stop-color="#E8E8E8"/><stop offset="1" stop-color="#CECECE"/></radialGradient><linearGradient id="f" x1="46.464" x2="155.563" y1="23.948" y2="90.174" gradientUnits="userSpaceOnUse"><stop stop-color="#fff"/><stop offset="1" stop-color="#F9F9F9"/></linearGradient><clipPath id="a"><path fill="#fff" d="M.334 10.5c0-5.523 4.477-10 10-10h95c5.523 0 10 4.477 10 10v65c0 5.523-4.477 10-10 10h-95c-5.523 0-10-4.477-10-10v-65Z"/></clipPath></defs></svg>